<?xml version="1.0" encoding="iso-8859-1"?>
<!-- Generator: Adobe Illustrator 16.0.0, SVG Export Plug-In . SVG Version: 6.00 Build 0)  -->
<!DOCTYPE svg PUBLIC "-//W3C//DTD SVG 1.1//EN" "http://www.w3.org/Graphics/SVG/1.1/DTD/svg11.dtd">
<svg version="1.1" id="Capa_1" xmlns="http://www.w3.org/2000/svg" xmlns:xlink="http://www.w3.org/1999/xlink" x="0px" y="0px"
	 width="57.549px" height="57.549px" viewBox="0 0 57.549 57.549" style="enable-background:new 0 0 57.549 57.549;"
	 xml:space="preserve">
<g>
	<g>
		<path d="M26.636,20.484h0.359c0.574-0.123,1.169-0.191,1.78-0.191c0.611,0,1.205,0.068,1.78,0.191h0.359v-9.7l7.422-7.423
			l-3.025-3.024l-4.397,4.398V0h-4.277v4.734l-4.398-4.398l-3.024,3.025l7.422,7.423V20.484z"/>
		<path d="M37.066,26.636v0.359c0.123,0.575,0.19,1.169,0.19,1.78c0,0.612-0.067,1.206-0.19,1.78v0.359h9.699l7.424,7.422
			l3.023-3.023l-4.398-4.398h4.734v-4.277h-4.734l4.398-4.398l-3.023-3.024l-7.424,7.422L37.066,26.636L37.066,26.636z"/>
		<path d="M26.636,52.814v4.734h4.277v-4.734l4.397,4.398l3.024-3.023l-7.422-7.424v-9.699h-0.358
			c-0.576,0.123-1.17,0.19-1.781,0.19s-1.206-0.067-1.78-0.19h-0.359v9.699l-7.422,7.424l3.024,3.023L26.636,52.814z"/>
		<path d="M0.337,35.311l3.024,3.024l7.423-7.422h9.7v-0.358c-0.123-0.576-0.191-1.17-0.191-1.781s0.068-1.206,0.191-1.78v-0.359
			h-9.7l-7.423-7.421l-3.024,3.024l4.398,4.398H0v4.277h4.734L0.337,35.311z"/>
		<path d="M3.994,17.678l10.497-0.047l6.89,6.828l0.274-0.277c0.642-0.992,1.483-1.842,2.469-2.492l0.267-0.27l-6.89-6.828
			L17.453,4.096l-4.277,0.019l0.028,6.219L9.841,7.002L6.83,10.04l3.363,3.332l-6.219,0.029L3.994,17.678z"/>
		<path d="M33.426,21.689c0.987,0.65,1.827,1.5,2.469,2.492l0.274,0.277l6.89-6.828l10.498,0.047l0.019-4.277l-6.22-0.028
			l3.363-3.332l-3.011-3.038l-3.362,3.332l0.027-6.219l-4.277-0.019l-0.048,10.497l-6.89,6.828L33.426,21.689z"/>
		<path d="M53.557,39.872l-10.498,0.047l-6.89-6.828l-0.274,0.277c-0.642,0.991-1.482,1.842-2.469,2.491l-0.267,0.271l6.89,6.828
			l0.049,10.497l4.276-0.02l-0.028-6.219l3.363,3.332l3.012-3.037l-3.363-3.332l6.219-0.029L53.557,39.872z"/>
		<path d="M17.453,53.454l0.048-10.497l6.89-6.828l-0.267-0.27c-0.987-0.65-1.827-1.5-2.469-2.492l-0.274-0.277l-6.89,6.828
			L3.994,39.872l-0.019,4.276l6.219,0.029l-3.363,3.331l3.011,3.038l3.363-3.332l-0.028,6.219L17.453,53.454z"/>
		<circle cx="28.775" cy="28.775" r="5.483"/>
	</g>
</g>
<g>
</g>
<g>
</g>
<g>
</g>
<g>
</g>
<g>
</g>
<g>
</g>
<g>
</g>
<g>
</g>
<g>
</g>
<g>
</g>
<g>
</g>
<g>
</g>
<g>
</g>
<g>
</g>
<g>
</g>
</svg>
